<?xml version="1.0" encoding="UTF-8"?>
<svg enable-background="new 0 0 500 500" version="1.1" viewBox="0 0 500 500" xml:space="preserve" xmlns="http://www.w3.org/2000/svg"><g id="internet-page-content"><path d="m250 0c-138.08 0-250 111.93-250 250 0 138.07 111.92 250 250 250 138.06 0 250-111.93 250-250 0-138.07-111.94-250-250-250z" fill="#F4F1F0"/><path d="m362.78 140.08h-225.56c-14.41 0.027-26.096 11.708-26.107 26.117v167.62c0.011 14.404 11.697 26.09 26.107 26.112h225.56c14.398-0.023 26.096-11.708 26.107-26.112v-167.62c-0.011-14.409-11.708-26.09-26.107-26.117zm-2.778 16.738c3.277 0 5.946 2.658 5.946 5.935s-2.669 5.93-5.946 5.93c-3.276 0-5.935-2.653-5.935-5.93s2.658-5.935 5.935-5.935zm-46.647 0.352h29.189c3.092 0 5.577 2.506 5.577 5.583 0 3.082-2.485 5.582-5.577 5.582h-29.189c-3.093 0-5.588-2.501-5.588-5.582 1e-3 -3.077 2.496-5.583 5.588-5.583zm61.295 176.65c-0.021 6.483-5.392 11.865-11.87 11.865h-225.56c-6.488 0-11.849-5.382-11.871-11.865v-150.88h249.3v150.88z" fill="#675F58"/><rect x="125.35" y="182.94" width="249.43" height="25.721" fill="#ff931e" stroke-width="1.1326"/><rect x="149.35" y="220.66" width="44.444" height="52.777" fill="#675f58"/><g fill="#ff931e"><rect x="306.33" y="220.66" width="44.444" height="52.777"/><rect x="149.35" y="281.44" width="44.444" height="52.777"/><rect x="201.79" y="220.66" width="44.444" height="52.777"/></g><g fill="#675f58"><rect x="201.79" y="281.44" width="44.444" height="52.777"/><rect x="306.33" y="281.44" width="44.444" height="52.777"/><rect x="253.89" y="220.66" width="44.444" height="52.777"/></g><rect x="253.89" y="281.44" width="44.444" height="52.777" fill="#ff931e"/></g></svg>
